<svg width="12" height="14" viewBox="0 0 12 14" fill="none" xmlns="http://www.w3.org/2000/svg">
<path fill-rule="evenodd" clip-rule="evenodd" d="M6.10234 10.0932L7.99673 8.17992C8.18815 7.97992 8.18815 7.66658 7.99013 7.47325C7.79871 7.27992 7.48848 7.27992 7.29706 7.47325L6.24756 8.53992V5.32658C6.24756 5.04658 6.02974 4.82658 5.75911 4.82658C5.48848 4.82658 5.26406 5.04658 5.26406 5.32658V8.53992L4.21456 7.47325C4.02314 7.27992 3.71291 7.27992 3.52149 7.47325C3.33007 7.66658 3.33007 7.97992 3.52149 8.17992L5.40928 10.0932C5.45548 10.1399 5.50829 10.1732 5.56769 10.1999C5.6271 10.2266 5.6931 10.2399 5.75911 10.2399C5.82512 10.2399 5.88452 10.2266 5.94393 10.1999C6.00333 10.1732 6.05614 10.1399 6.10234 10.0932ZM10.8854 5.01699C11.0406 5.0152 11.2095 5.01325 11.363 5.01325C11.5346 5.01325 11.6666 5.14658 11.6666 5.31325V10.6733C11.6666 12.3266 10.3333 13.6666 8.69635 13.6666H3.44882C1.72605 13.6666 0.333313 12.2599 0.333313 10.5266V3.33992C0.333313 1.68659 1.66005 0.333252 3.31021 0.333252H6.83496C6.99998 0.333252 7.13859 0.473252 7.13859 0.639919V2.78659C7.13859 4.00659 8.12869 5.00659 9.34321 5.01325C9.62218 5.01325 9.8718 5.01537 10.0897 5.01722C10.2585 5.01865 10.4083 5.01992 10.5379 5.01992C10.6319 5.01992 10.7537 5.01851 10.8854 5.01699ZM11.0697 4.04399C10.5278 4.04599 9.88821 4.04399 9.42814 4.03932C8.69811 4.03932 8.09679 3.43199 8.09679 2.69466V0.937323C8.09679 0.649989 8.442 0.507323 8.6387 0.714656C9.14723 1.24821 9.92582 2.06601 10.5837 2.75702C10.8498 3.03648 11.0961 3.2952 11.2968 3.50599C11.4895 3.70799 11.3483 4.04332 11.0697 4.04399Z" fill="white"/>
</svg>
