<svg width="145" height="161" viewBox="0 0 145 161" fill="none" xmlns="http://www.w3.org/2000/svg">
<path d="M65.5966 1.91284C69.8789 -0.514337 75.1211 -0.514332 79.4034 1.91285L108.387 18.341L137.107 35.2279C141.35 37.7229 143.971 42.2628 144.01 47.1849L144.275 80.5L144.01 113.815C143.971 118.737 141.35 123.277 137.107 125.772L108.387 142.659L79.4034 159.087C75.1211 161.514 69.8788 161.514 65.5966 159.087L36.6125 142.659L7.89322 125.772C3.6501 123.277 1.02895 118.737 0.989826 113.815L0.724998 80.5L0.989826 47.1849C1.02895 42.2628 3.6501 37.7229 7.89323 35.2279L36.6125 18.341L65.5966 1.91284Z" fill="url(#paint0_linear_193_585)"/>
<defs>
<linearGradient id="paint0_linear_193_585" x1="138" y1="16" x2="-10" y2="127" gradientUnits="userSpaceOnUse">
<stop stop-color="#7E7E7E"/>
<stop offset="1" stop-color="#B0B0B0"/>
</linearGradient>
</defs>
</svg>
